<?xml version="1.0" encoding="UTF-8"?>
<!DOCTYPE svg PUBLIC "-//W3C//DTD SVG 1.1//EN" "http://www.w3.org/Graphics/SVG/1.1/DTD/svg11.dtd">
<!-- Creator: CorelDRAW 2018 -->
<svg xmlns="http://www.w3.org/2000/svg" xml:space="preserve" width="111mm" height="28mm" version="1.1" style="shape-rendering:geometricPrecision; text-rendering:geometricPrecision; image-rendering:optimizeQuality; fill-rule:evenodd; clip-rule:evenodd"
viewBox="0 0 11100 2800"
 xmlns:xlink="http://www.w3.org/1999/xlink">
 <defs>
  <style type="text/css">
   <![CDATA[
    .fil3 {fill:none}
    .fil2 {fill:#673AB7}
    .fil1 {fill:#fff;fill-rule:nonzero}
    .fil0 {fill:#673AB7;fill-rule:nonzero}
   ]]>
  </style>
 </defs>
 <g id="layer_x0020_1">
  <metadata id="CorelCorpID_0Corel-Layer"/>
  <g id="_834976056">
   <path class="fil0" d="M1156.15 1549.55c397.83,-55.38 565.42,-545.9 278.62,-832.77 -308.12,-308.06 -837.39,-88.99 -837.46,346.92l-0.1 260.33c0,8.18 -2.94,15.23 -8.71,21.02 -5.82,5.79 -12.9,8.66 -21.08,8.63 -126.47,-0.71 -278.33,57.34 -377.08,127.19 -18.41,13.03 -41.05,14.66 -61.13,4.29 -20.09,-10.34 -31.88,-29.69 -31.98,-52.26l-1.28 -369.2c-0.91,-546.13 443.62,-991.92 991.94,-991.92 880.61,0 1324.81,1069.84 701.34,1693.28 -176.24,176.27 -418.5,286.5 -686.47,290.46 -104.88,1.42 -209.75,-0.99 -314.63,-1.05 -105,-0.13 -190.65,85.47 -190.72,190.43l-0.2 483.32 -499.42 0c0.13,-226.84 -1.02,-457.19 -1.02,-682.13 0,-270.66 220.88,-491.54 491.57,-491.34 185.44,0.16 383.12,20.51 567.81,-5.2z"/>
   <path class="fil1" d="M2935.34 1872.09l0.63 -418.06c0,-149.12 0,-298.24 0,-447.37 0,-3.59 0.24,-7.12 0.69,-10.56 0,0 0,-0.03 0,-0.03 7.57,-35.39 28.21,-57.16 59.68,-67.81 6.97,-1.86 14.3,-2.85 21.92,-2.85l333.94 0c90.85,0 172.7,37.82 231.96,98.21 59.71,60.88 96.53,144.79 96.53,236.06 0,90.28 -36.37,170.36 -95.49,228.01 -59.38,57.88 -141.73,93.03 -233,93.03l-266.99 0 0 291.37c-49.95,0 -99.91,0 -149.87,0zm3231.97 -946.68l333.93 0c90.85,0 172.7,37.82 231.96,98.21 59.71,60.88 96.53,144.79 96.53,236.06 0,90.28 -36.37,170.36 -95.48,228.01 -59.38,57.88 -141.74,93.03 -233.01,93.03l-266.95 0 0 291.37 -149.28 0 0 -865.43c0,-22.58 9.19,-43.02 24.2,-57.76 14.9,-14.57 35.27,-23.49 58.1,-23.49zm66.98 506.04l266.95 0c50.77,0 95.79,-18.97 127.92,-49.96 31.89,-30.75 51.33,-73.71 51.33,-121.81 0,-50.77 -20.43,-97.13 -53.13,-130.7 -32.54,-33.47 -77.33,-54.29 -126.12,-54.29l-266.95 0 0 356.76zm-529.52 309.88c-87.17,88.82 -208.06,143.32 -342.52,143.32 -133.18,0 -254.13,-55.1 -341.63,-144.27 -87.2,-88.85 -141.28,-211.53 -141.28,-347.16 0,-135.13 53.75,-255.68 140.48,-342.67 87.62,-87.89 208.89,-141.53 342.43,-141.53 133.39,0 255.02,53.4 342.88,141.47 86.39,86.66 140.06,206.83 140.06,342.73 0,136.83 -53.46,259.51 -140.42,348.11zm-578.07 -102.69c60.34,62.22 143.47,100.99 235.55,100.99 92.64,0 175.8,-38.47 235.99,-100.58 60.91,-62.82 98.54,-149.87 99.05,-245.83 -0.12,-94.47 -37.33,-178.8 -97.52,-239.5 -60.52,-61.02 -144.55,-98.42 -237.52,-98.42 -92.95,0 -176.98,37.37 -237.52,98.42 -60.16,60.67 -97.38,145 -97.38,239.5 0.39,95.33 38.29,182.42 99.35,245.42zm-488.56 233.45l-116.97 0 -230.64 -331.18 -233.06 0 0 331.18 -149.28 0 0 -865.43c0,-22.58 9.19,-43.02 24.2,-57.76 14.9,-14.57 35.27,-23.49 58.1,-23.49l362.5 0c85.98,0 163.63,35.72 219.9,92.86 56.6,57.43 91.57,136.65 91.57,222.86 0,74.82 -26.86,141.74 -71.52,193.22 -36.17,41.7 -84.09,73.2 -138.81,90.52l241.14 347.22 -57.13 0zm-285.15 -797.4l-295.52 0 0 319.9 295.52 0c46.31,0 86.87,-17.02 115.8,-44.63 28.9,-27.58 46.37,-66.05 46.37,-108.83 0,-45.56 -18.28,-87.53 -47.99,-117.89 -29.16,-29.8 -69.46,-48.55 -114.18,-48.55zm-1267.78 356.76l266.99 0c50.77,0 95.76,-18.97 127.88,-49.93 31.89,-30.78 51.34,-73.74 51.34,-121.84 0,-50.8 -20.43,-97.13 -53.13,-130.7 -32.55,-33.47 -77.33,-54.29 -126.09,-54.29l-266.99 0 0 356.76z"/>
   <path class="fil2" d="M11004.06 973.77l0 130.05 -561.64 0 0 206.42 527.16 0 0 174.4 -527.16 0 0 208.88 561.64 0 0 174.4 -641.5 0c-12.64,0 -24.8,-2.49 -35.89,-6.96 -11.58,-4.65 -21.99,-11.56 -30.61,-19.98 -8.89,-8.75 -16.03,-19.15 -20.82,-30.59 -4.64,-11.15 -7.22,-23.36 -7.22,-36l0 -751.43c0,-12.67 2.58,-24.86 7.22,-36.01 4.79,-11.44 11.93,-21.9 20.82,-30.58 8.62,-8.43 19.03,-15.34 30.61,-19.98 11.09,-4.48 23.25,-6.97 35.89,-6.97l641.5 0 0 44.35zm-1120.53 627.91l0 -211.24 174.4 0 0 241.71c0,3.67 -0.34,7.4 -0.89,11.07l-2.46 10.92 -3.61 9.83 -6.02 11.81c-20.9,31.93 -45.87,60.74 -74.16,85.99 -28.52,25.49 -60.37,47.25 -94.71,64.82 -34.43,17.63 -71.26,31.1 -109.59,40.04 -38.09,8.92 -78,13.53 -118.82,13.53 -64.52,0 -126.35,-13.24 -182.88,-37.12 -58.53,-24.77 -111.25,-61.03 -155.28,-105.95 -44.03,-44.94 -79.58,-98.6 -103.71,-158.03 -23.28,-57.27 -36.15,-120.02 -36.15,-185.69 0,-65.3 12.79,-127.33 35.89,-183.75 24.05,-58.62 59.34,-111.13 103.05,-154.87 44.09,-44.12 96.83,-79.52 155.34,-103.6 56.73,-23.39 118.87,-36.21 183.74,-36.21 34.66,0 68.86,3.93 102.02,11.33 33.83,7.51 66.42,18.77 97.24,33.25 31.44,14.73 61.03,32.88 88.2,53.8 27.49,21.19 52.6,45.27 74.67,71.61l27.21 32.56 -128.91 117.59 -29.58 -36.66c-14.05,-17.4 -30.13,-33.31 -47.7,-47.33 -17.4,-13.85 -36.32,-25.83 -56.33,-35.52 -19.49,-9.43 -40.25,-16.82 -61.86,-21.78 -20.75,-4.76 -42.51,-7.31 -64.96,-7.31 -41.76,0 -81.35,8.14 -117.21,22.93 -37.12,15.34 -70.6,37.92 -98.55,66.02 -27.89,28.06 -50.45,61.77 -65.84,99.41 -14.85,36.26 -23.17,76.3 -23.42,118.53 0.25,42.51 8.74,83.39 23.93,120.79 15.65,38.64 38.56,73.5 66.76,102.54 28.01,28.81 61.46,52.11 98.61,67.94 35.49,15.13 74.62,23.56 115.72,23.56 26.15,0 51.49,-2.7 75.48,-7.91 23.74,-5.16 46.32,-12.93 67.19,-23.11 19.95,-9.71 38.41,-21.55 54.84,-35.37 13.99,-11.84 26.86,-25.22 38.35,-40.13zm-1165.59 -628.4l378.47 894.64 -193.72 0 -270.8 -643.02 -274.9 643.02 -192.72 0 145.02 -340c80.58,-189.36 161.16,-378.52 237.72,-555.82l0.46 -0.89c3.79,-8.08 8.6,-15.53 14.08,-22.15 5.84,-7.08 12.44,-13.13 19.43,-18.01 7.45,-5.18 15.71,-9.28 24.31,-12.04 8.94,-2.8 17.97,-4.29 26.89,-4.29 9.26,0 18.46,1.46 27.26,4.18 8.68,2.69 17.08,6.85 24.76,12.13 7.34,5.04 14.02,11.32 19.78,18.54 5.62,6.97 10.35,14.94 13.96,23.71zm-830.29 -49.02c6.6,-3.47 13.5,-6.25 20.47,-8 7.02,-1.8 14.33,-2.75 21.81,-2.75 12.45,0 24.4,2.55 35.35,7.02 11.35,4.68 21.53,11.58 29.98,20.13 8.57,8.63 15.45,18.94 20.04,30.21 4.47,11.07 6.94,23.08 6.94,35.34l0 861.71 -174.4 0 0 -594.77 -274.07 426.85 -273.98 -426.85 0 594.77 -174.4 0 0 -861.71c0,-12.38 2.52,-24.3 7.08,-35.25 4.7,-11.3 11.61,-21.5 20.03,-30.02 8.46,-8.48 18.69,-15.48 29.9,-20.18 11.07,-4.64 23.08,-7.25 35.29,-7.25 7.45,0 14.82,0.95 21.81,2.72 7,1.78 13.88,4.59 20.38,8.03 6.37,3.41 12.39,7.6 17.75,12.36 5.44,4.67 10.43,10.14 14.7,16.05l281.47 434.85 281.58 -434.97c4.18,-5.73 9.11,-11.15 14.67,-15.99 5.48,-4.82 11.44,-9 17.6,-12.3z"/>
  </g>
  <rect class="fil3" x="-27.63" y="-36.04" width="11155.26" height="2872.07"/>
 </g>
</svg>
